<svg width="20" height="20" viewBox="0 0 20 20" fill="none" xmlns="http://www.w3.org/2000/svg">
<g clip-path="url(#clip0_1_24)">
<path d="M10 0C4.47581 0 0 4.47581 0 10C0 15.5242 4.47581 20 10 20C15.5242 20 20 15.5242 20 10C20 4.47581 15.5242 0 10 0ZM15.1613 17C13.7137 18.0685 11.9315 18.7097 10 18.7097C8.06855 18.7097 6.28629 18.0685 4.83871 17V16.4516C4.83871 15.0282 5.99597 13.871 7.41935 13.871C7.86694 13.871 8.52823 14.3306 10 14.3306C11.4758 14.3306 12.129 13.871 12.5806 13.871C14.004 13.871 15.1613 15.0282 15.1613 16.4516V17ZM16.3952 15.8911C16.121 14.0202 14.5282 12.5806 12.5806 12.5806C11.754 12.5806 11.3548 13.0403 10 13.0403C8.64516 13.0403 8.25 12.5806 7.41935 12.5806C5.47177 12.5806 3.87903 14.0202 3.60484 15.8911C2.17339 14.3387 1.29032 12.2742 1.29032 10C1.29032 5.19758 5.19758 1.29032 10 1.29032C14.8024 1.29032 18.7097 5.19758 18.7097 10C18.7097 12.2742 17.8266 14.3387 16.3952 15.8911ZM10 4.51613C8.04032 4.51613 6.45161 6.10484 6.45161 8.06452C6.45161 10.0242 8.04032 11.6129 10 11.6129C11.9597 11.6129 13.5484 10.0242 13.5484 8.06452C13.5484 6.10484 11.9597 4.51613 10 4.51613ZM10 10.3226C8.75403 10.3226 7.74194 9.31048 7.74194 8.06452C7.74194 6.81855 8.75403 5.80645 10 5.80645C11.246 5.80645 12.2581 6.81855 12.2581 8.06452C12.2581 9.31048 11.246 10.3226 10 10.3226Z" fill="white"/>
</g>
<defs>
<clipPath id="clip0_1_24">
<rect width="20" height="20" fill="white"/>
</clipPath>
</defs>
</svg>
