<svg width="21" height="24" viewBox="0 0 21 24" fill="none" xmlns="http://www.w3.org/2000/svg">
<path d="M14.5795 6.16478L14.2481 6.49618C14.0284 6.71584 14.0284 7.072 14.2481 7.2917L18.1822 11.2031H0.5625C0.251859 11.2031 0 11.455 0 11.7656V12.2344C0 12.545 0.251859 12.7969 0.5625 12.7969H18.1822L14.2481 16.7083C14.0284 16.928 14.0284 17.2841 14.2481 17.5038L14.5795 17.8353C14.7992 18.0549 15.1553 18.0549 15.375 17.8353L20.8352 12.3977C21.0549 12.1781 21.0549 11.8219 20.8352 11.6022L15.375 6.16478C15.1553 5.94507 14.7992 5.94507 14.5795 6.16478Z" fill="black" fill-opacity="0.8"/>
</svg>
