<svg width="20" height="20" viewBox="0 0 20 20" fill="none" xmlns="http://www.w3.org/2000/svg">
<path d="M18.125 2.5H1.875C0.839844 2.5 0 3.33984 0 4.375V15.625C0 16.6602 0.839844 17.5 1.875 17.5H18.125C19.1602 17.5 20 16.6602 20 15.625V4.375C20 3.33984 19.1602 2.5 18.125 2.5ZM1.875 3.75H18.125C18.4688 3.75 18.75 4.03125 18.75 4.375V5.99219C17.8945 6.71484 16.6719 7.71094 12.8672 10.7305C12.207 11.2539 10.9062 12.5156 10 12.5C9.09375 12.5156 7.78906 11.2539 7.13281 10.7305C3.32813 7.71094 2.10547 6.71484 1.25 5.99219V4.375C1.25 4.03125 1.53125 3.75 1.875 3.75ZM18.125 16.25H1.875C1.53125 16.25 1.25 15.9688 1.25 15.625V7.61719C2.14062 8.34766 3.54687 9.47656 6.35547 11.707C7.15625 12.3477 8.57031 13.7578 10 13.75C11.4219 13.7617 12.8242 12.3633 13.6445 11.707C16.4531 9.47656 17.8594 8.34766 18.75 7.61719V15.625C18.75 15.9688 18.4688 16.25 18.125 16.25Z" fill="white"/>
</svg>
