<svg width="24" height="24" viewBox="0 0 24 24" fill="none" xmlns="http://www.w3.org/2000/svg">
<path d="M22.2188 5.34375H1.78125C1.70666 5.34375 1.63512 5.31412 1.58238 5.26137C1.52963 5.20863 1.5 5.13709 1.5 5.0625V3.9375C1.5 3.86291 1.52963 3.79137 1.58238 3.73863C1.63512 3.68588 1.70666 3.65625 1.78125 3.65625H22.2188C22.2933 3.65625 22.3649 3.68588 22.4176 3.73863C22.4704 3.79137 22.5 3.86291 22.5 3.9375V5.0625C22.5 5.13709 22.4704 5.20863 22.4176 5.26137C22.3649 5.31412 22.2933 5.34375 22.2188 5.34375ZM22.2188 12.8438H1.78125C1.70666 12.8438 1.63512 12.8141 1.58238 12.7614C1.52963 12.7086 1.5 12.6371 1.5 12.5625V11.4375C1.5 11.3629 1.52963 11.2914 1.58238 11.2386C1.63512 11.1859 1.70666 11.1562 1.78125 11.1562H22.2188C22.2933 11.1562 22.3649 11.1859 22.4176 11.2386C22.4704 11.2914 22.5 11.3629 22.5 11.4375V12.5625C22.5 12.6371 22.4704 12.7086 22.4176 12.7614C22.3649 12.8141 22.2933 12.8438 22.2188 12.8438ZM22.2188 20.3438H1.78125C1.70666 20.3438 1.63512 20.3141 1.58238 20.2614C1.52963 20.2086 1.5 20.1371 1.5 20.0625V18.9375C1.5 18.8629 1.52963 18.7914 1.58238 18.7386C1.63512 18.6859 1.70666 18.6562 1.78125 18.6562H22.2188C22.2933 18.6562 22.3649 18.6859 22.4176 18.7386C22.4704 18.7914 22.5 18.8629 22.5 18.9375V20.0625C22.5 20.1371 22.4704 20.2086 22.4176 20.2614C22.3649 20.3141 22.2933 20.3438 22.2188 20.3438Z" fill="white"/>
</svg>
