<svg width="20" height="20" viewBox="0 0 20 20" fill="none" xmlns="http://www.w3.org/2000/svg">
<g clip-path="url(#clip0_1_3069)">
<path d="M1.875 2.5H7.03125C7.28906 2.5 7.5 2.71094 7.5 2.96875V3.28125C7.5 3.53906 7.28906 3.75 7.03125 3.75H1.875C1.53125 3.75 1.25 4.03125 1.25 4.375V15.625C1.25 15.9688 1.53125 16.25 1.875 16.25H7.03125C7.28906 16.25 7.5 16.4609 7.5 16.7188V17.0312C7.5 17.2891 7.28906 17.5 7.03125 17.5H1.875C0.839844 17.5 0 16.6602 0 15.625V4.375C0 3.33984 0.839844 2.5 1.875 2.5ZM12.7734 3.26172L12.4961 3.53906C12.3125 3.72266 12.3125 4.01953 12.4961 4.20312L17.6523 9.33594H6.71875C6.46094 9.33594 6.25 9.54688 6.25 9.80469V10.1953C6.25 10.4531 6.46094 10.6641 6.71875 10.6641H17.6523L12.5 15.7969C12.3164 15.9805 12.3164 16.2773 12.5 16.4609L12.7773 16.7383C12.9609 16.9219 13.2578 16.9219 13.4414 16.7383L19.8672 10.332C20.0508 10.1484 20.0508 9.85156 19.8672 9.66797L13.4375 3.26172C13.2539 3.07812 12.957 3.07812 12.7734 3.26172Z" fill="#4B99F5"/>
</g>
<defs>
<clipPath id="clip0_1_3069">
<rect width="20" height="20" fill="white"/>
</clipPath>
</defs>
</svg>
