<svg width="20" height="20" viewBox="0 0 20 20" fill="none" xmlns="http://www.w3.org/2000/svg">
<path fill-rule="evenodd" clip-rule="evenodd" d="M1.93994 16.9701V15.7191H4.08934V7.74702C4.08934 6.32475 4.52314 5.06223 5.39056 3.9606C6.2532 2.86505 7.37365 2.18514 8.75068 1.92146V1.19525C8.75068 0.842438 8.87012 0.553659 9.10987 0.331668C9.34897 0.11028 9.64561 0 9.99772 0C10.3498 0 10.6465 0.11028 10.8856 0.331668C11.1253 0.553659 11.2448 0.842438 11.2448 1.19525V1.92146C12.6218 2.18513 13.7465 2.86502 14.6177 3.96048C15.4938 5.06212 15.932 6.32467 15.932 7.74702V15.7191H18.0555V16.9701H1.93994ZM8.10327 18.0756H11.8922V18.1056C11.8922 18.6313 11.7078 19.0792 11.3396 19.4474C10.9714 19.8156 10.5235 20 9.99772 20C9.48893 20 9.04559 19.8155 8.66905 19.4477C8.29212 19.0795 8.10327 18.6316 8.10327 18.1056V18.0756ZM14.6809 15.7191H5.31449V7.74702C5.31449 6.44274 5.76894 5.33247 6.67834 4.41449C7.58758 3.49667 8.70205 3.0379 10.0236 3.0379C11.3278 3.0379 12.4293 3.49658 13.3299 4.41439C14.2307 5.33235 14.6809 6.44265 14.6809 7.74702V15.7191Z" fill="white"/>
</svg>
